<svg xmlns="http://www.w3.org/2000/svg" width="454.333" height="454.333" viewBox="0 0 454.333 454.333">
  <defs>
    <style>
      .cls-1 {
        fill: #fff;
      }
    </style>
  </defs>
  <path id="Icon_simple-whatsapp" data-name="Icon simple-whatsapp" class="cls-1" d="M331.247,272.259c-5.7-2.84-33.45-16.413-38.618-18.287-5.168-1.912-8.954-2.84-12.74,2.84-3.729,5.585-14.6,18.249-17.87,22-3.313,3.691-6.607,3.975-12.229,1.42-5.679-2.84-23.909-8.8-45.49-28.112-16.81-15.05-28.093-33.507-31.425-39.186-3.294-5.679-.36-8.8,2.461-11.642,2.575-2.556,5.7-6.531,8.538-9.9,2.764-3.426,3.673-5.7,5.622-9.39,1.893-3.975.928-7.1-.473-9.92-1.42-2.84-12.721-30.667-17.454-41.761-4.543-11.055-9.219-9.655-12.721-9.655-3.256-.284-7.023-.284-10.809-.284a21.34,21.34,0,0,0-15.088,6.8c-5.168,5.679-19.782,19.309-19.782,46.853s20.256,54.236,23.076,58.211c2.821,3.691,39.849,60.483,96.546,84.9,13.516,5.679,24.042,9.087,32.258,11.907,13.516,4.3,25.84,3.691,35.589,2.291,10.866-1.723,33.45-13.649,38.164-26.995,4.827-13.346,4.827-24.42,3.408-26.976-1.4-2.556-5.111-3.975-10.79-6.531m-103.1,140.9h-.3a189.373,189.373,0,0,1-95.694-26.124l-6.815-4.051L54.52,400.022l19.025-69-4.524-7.1a186.816,186.816,0,0,1-28.7-99.575c0-103.077,84.336-187.129,188.208-187.129A188.051,188.051,0,0,1,416.51,224.63c-.076,103.058-84.43,187.129-188.075,187.129M388.455,65.291C345.293,23.569,288.5,0,228.019,0,103.418,0,1.969,100.976,1.912,225.141A224.061,224.061,0,0,0,32.106,337.683L0,454.333,119.925,423.06a228.343,228.343,0,0,0,108.093,27.393h.114c124.658,0,226.144-101.013,226.2-225.2A223.271,223.271,0,0,0,388.171,66.03"/>
</svg>
